<?xml version="1.0" encoding="iso-8859-1"?>
<!-- Generator: Adobe Illustrator 16.0.0, SVG Export Plug-In . SVG Version: 6.00 Build 0)  -->
<!DOCTYPE svg PUBLIC "-//W3C//DTD SVG 1.1//EN" "http://www.w3.org/Graphics/SVG/1.1/DTD/svg11.dtd">
<svg version="1.1" id="Layer_1" xmlns="http://www.w3.org/2000/svg" xmlns:xlink="http://www.w3.org/1999/xlink" x="0px" y="0px"
	 width="792px" height="612px" viewBox="0 0 792 612" style="enable-background:new 0 0 792 612;" xml:space="preserve">
<path style="fill:#4DA9DE;" d="M740.001,230.2v167.036h38.614V230.634L740.001,230.2z"/>
<path style="fill:#4DA9DE;" d="M692.928,230.634v76.142l43.819,88.724v-75.274L692.928,230.634z"/>
<path style="fill:#4DA9DE;" d="M650.626,230.417v166.602h38.179l0.217-166.385L650.626,230.417z"/>
<path style="fill:#4DA9DE;" d="M528.495,358.405v38.18h115.406v-38.396L528.495,358.405z"/>
<path style="fill:#4DA9DE;" d="M606.156,272.935l-0.217,82.216l37.962-0.217l0.217-82.433L606.156,272.935z"/>
<path style="fill:#4DA9DE;" d="M528.712,272.501v81.565l38.614,0.434v-81.999H528.712z"/>
<path style="fill:#4DA9DE;" d="M528.712,230.634v38.179h115.407v-37.962L528.712,230.634z"/>
<path style="fill:#4DA9DE;" d="M452.57,272.718h36.661v124.083l-36.661,0.217V272.718z"/>
<path style="fill:#4DA9DE;" d="M419.597,230.417v38.396h102.391v-38.396H419.597z"/>
<path style="fill:#4DA9DE;" d="M374.042,397.019h37.528V230.2h-37.746L374.042,397.019z"/>
<path style="fill:#4DA9DE;" d="M307.228,346.257v50.762l31.455-31.455l31.021,31.021V346.04l-17.788-17.788h-28.418L307.228,346.257
	z"/>
<path style="fill:#4DA9DE;" d="M266.011,230.851v165.951h38.179V230.851H266.011z"/>
<path style="fill:#4DA9DE;" d="M142.795,352.023v44.996h115.189V352.24L142.795,352.023z"/>
<path style="fill:#4DA9DE;" d="M142.362,294.237l0.434,37.919h114.755l-0.434-38.136L142.362,294.237z"/>
<path style="fill:#4DA9DE;" d="M143.229,230.851l0.217,44.222h114.756l-0.217-44.656L143.229,230.851z"/>
<path style="fill:#4DA9DE;" d="M7.865,190.285v206.083l39.698,0.651V282.479l50.761,114.322l39.264,0.217V230.2l39.047-39.264
	l-77.877,0.217v114.973L47.346,190.719L7.865,190.285z"/>
</svg>
